<svg xmlns="http://www.w3.org/2000/svg" xmlns:xlink="http://www.w3.org/1999/xlink" version="1.1" x="0px" y="0px" viewBox="0 0 100 125" enable-background="new 0 0 100 100" xml:space="preserve"><g><path d="M3.891,44.562l-0.387-0.194l-0.002,0.433C3.49,47.03,3.864,48.235,4.025,48.65l0.063,0.156l0.165,0.014   c0.13,0.011,0.255,0.017,0.378,0.017c2.387,0,3.875-1.941,4.403-2.775l0.25-0.396l-0.469-0.017   C6.225,45.553,4.617,44.927,3.891,44.562z M4.043,45.225c0.82,0.355,2.23,0.806,4.271,0.937c-0.645,0.874-1.941,2.206-3.846,2.133   C4.329,47.874,4.072,46.883,4.043,45.225z"/><path d="M68.923,43.23l0.371-0.39l-0.535-0.062c-0.743-0.087-1.224-0.138-1.344-0.151l-0.054-0.017   c-3.105-1.769-10.161-4.403-13.558-5.67l-1.349-0.505l-0.03,0.353c-0.028,0.328-0.112,0.582-0.177,0.737l-0.107,0.256l0.261,0.099   c4.391,1.661,8.256,3.519,11.077,4.875c0.685,0.329,1.291,0.622,1.82,0.869c0.599,0.281,1.17,0.422,1.699,0.422   C67.947,44.047,68.568,43.603,68.923,43.23z M68.053,43.239c-0.552,0.314-1.49,0.383-2.524-0.101   C65,42.891,64.395,42.6,63.723,42.276c-2.788-1.341-6.574-3.161-10.884-4.806c0.025-0.086,0.051-0.184,0.072-0.29l0.682,0.255   c3.415,1.274,10.471,3.908,13.526,5.657l0.213,0.068C67.351,43.162,67.606,43.188,68.053,43.239z"/><path d="M95.943,50.976l0.43-0.194l-0.385-0.271c-0.564-0.398-1.807-1.211-3.78-2.187L92.129,48.3   c-0.42-0.063-2.607-0.375-4.505-0.377h-0.593l0.392,0.446c0.628,0.716,1.932,2.017,3.618,2.68c0.657,0.129,1.726,0.264,2.74,0.264   C94.718,51.313,95.446,51.2,95.943,50.976z M95.227,50.644c-0.388,0.086-0.877,0.13-1.445,0.13c-0.977,0-2.007-0.129-2.592-0.241   c-1.23-0.488-2.269-1.377-2.938-2.062c1.659,0.056,3.403,0.301,3.757,0.353C93.508,49.569,94.572,50.212,95.227,50.644z"/><path d="M74.092,56.502c0,4.003,3.246,7.249,7.249,7.249s7.251-3.246,7.251-7.249c0-4.005-3.248-7.251-7.251-7.251   S74.092,52.497,74.092,56.502z M80.806,55.203l-2.362-2.361c0.663-0.527,1.473-0.877,2.362-0.979V55.203z M81.88,51.863   c0.887,0.102,1.695,0.451,2.359,0.979l-2.359,2.361V51.863z M85,53.602c0.527,0.664,0.877,1.475,0.98,2.361H82.64L85,53.602z    M85.98,57.039c-0.104,0.887-0.453,1.697-0.979,2.361l-2.361-2.361H85.98z M84.24,60.161c-0.665,0.526-1.474,0.876-2.36,0.978   v-3.34L84.24,60.161z M80.806,61.139c-0.89-0.102-1.699-0.451-2.362-0.978l2.362-2.362V61.139z M77.683,59.4   c-0.526-0.664-0.876-1.475-0.978-2.361h3.339L77.683,59.4z M76.705,55.963c0.102-0.887,0.451-1.697,0.979-2.361l2.36,2.361H76.705z   "/><path d="M3.354,53.061c0.113,0.467,0.238,0.98,0.359,1.542c0.648,3.045,2.221,3.222,2.308,3.229l5.95,0.963l1.471,0.08   c-0.234-0.78-0.354-1.576-0.354-2.373c0-4.587,3.73-8.317,8.315-8.317s8.315,3.73,8.315,8.317c0,1.106-0.221,2.185-0.653,3.21   l42.749-0.066c0,0,0.718,0.035,1.873,0.088c-0.438-1.031-0.662-2.118-0.662-3.231c0-4.587,3.731-8.317,8.315-8.317   c4.586,0,8.315,3.73,8.315,8.317c0,1.258-0.289,2.506-0.839,3.638c0.195-0.004,0.383-0.007,0.563-0.013   c5.039-0.131,7.271-0.87,7.543-1.336c0.025-0.041,0.026-0.066,0.003-0.108c-0.342-0.646-0.244-1.394-0.097-2.523   c0.075-0.571,0.168-1.283,0.222-2.137c0.123-1.952-0.547-2.745-0.744-2.935c-0.626,0.379-1.582,0.495-2.518,0.495   c-1.367,0-2.679-0.245-2.798-0.271c-2.458-0.96-4.075-3.125-4.144-3.218l-0.3-0.407l0.505-0.021   c1.124-0.048,2.433,0.049,3.454,0.156c-0.893-0.397-1.893-0.808-3.006-1.222c-4.66-1.729-14.04-2.988-18.142-3.481   c-0.264,0.354-1.026,1.195-2.369,1.195c-0.515,0-1.116-0.125-1.806-0.447c-0.53-0.249-1.139-0.542-1.813-0.866   c-2.889-1.389-6.844-3.291-11.348-4.977l-0.316-0.121l0.189-0.282c0.002-0.004,0.248-0.39,0.266-1.013   c-0.166-0.064-0.299-0.117-0.385-0.152c-0.326-0.139-0.627-0.209-0.891-0.209c-0.289,0-0.457,0.085-0.522,0.127   c-0.327,0.797-0.834,1.411-1.142,1.734c2.826,1.631,7.902,3.506,7.955,3.525l0.19,0.071l-0.173,2.281l-13.514-0.718l0.006-0.261   c0.023-0.905-0.148-3.504-1.239-3.57c-1.011,0-1.44,2.393-1.511,3.23l-0.022,0.263l-12.399-0.798l0.011-0.262   c0.034-0.905-0.097-1.444-0.438-1.8c-0.446-0.462-1.297-0.664-2.701-0.628c-2.668,0.063-3.017,1.496-3.03,1.555l-0.037,0.186   l-0.187,0.027c-1.711,0.25-6.195,0.743-6.289,0.75c-0.827-0.06-1.694-0.089-2.579-0.089c-4.536,0-8.501,0.783-9.396,0.973   c-0.046,0.484-0.072,0.933-0.09,1.353c0.467,0.263,2.28,1.154,5.488,1.191l0.424,0.006l-0.186,0.382   c-0.018,0.035-1.673,3.333-4.87,3.333c-0.158,0-0.321-0.013-0.489-0.03C2.564,49.826,2.795,50.784,3.354,53.061z M43.547,47.087   c-0.022,0.247-0.239,0.429-0.487,0.407l-4.053-0.363c-0.247-0.021-0.427-0.239-0.406-0.485c0.021-0.248,0.239-0.429,0.485-0.408   l4.055,0.362C43.387,46.623,43.568,46.84,43.547,47.087z M61.822,43.378c0,0.664-1.416,1.201-3.165,1.201v-2.401   C60.406,42.178,61.822,42.715,61.822,43.378z M36.711,48.504l1.283,2.525l0.655,1.247c0.224,0.413,0.429,0.831,0.665,1.238   l0.708,1.226l0.177,0.306c0.045,0.07,0.131,0.163,0.195,0.243c0.133,0.167,0.264,0.336,0.441,0.463l0.244,0.208   c0.084,0.066,0.184,0.117,0.273,0.176c0.177,0.122,0.373,0.217,0.572,0.302c0.193,0.102,0.41,0.149,0.613,0.222   c0.201,0.054,0.422,0.105,0.604,0.125c1.836,0.019,3.668,0.069,5.5,0.104l5.52,0.169c1.838,0.076,3.678,0.135,5.516,0.225   c1.752,0.084,3.505,0.168,5.256,0.272c0.146-0.295,0.296-0.589,0.407-0.9c0.072-0.197,0.163-0.388,0.227-0.588l0.197-0.6   c0.067-0.199,0.11-0.407,0.167-0.611c0.058-0.203,0.11-0.409,0.148-0.617c0.095-0.415,0.162-0.834,0.233-1.256   c0.128-0.843,0.211-1.695,0.245-2.555c0.027-0.857,0.032-1.721-0.023-2.583c0.162,0.85,0.256,1.715,0.294,2.582   c0.043,0.868,0.035,1.74-0.021,2.613c-0.029,0.437-0.077,0.872-0.146,1.305c-0.025,0.219-0.067,0.435-0.111,0.65   c-0.045,0.216-0.078,0.434-0.136,0.646l-0.166,0.644c-0.053,0.216-0.137,0.422-0.205,0.633c-0.129,0.425-0.331,0.827-0.504,1.241   l-0.093,0.222l-0.281-0.003c-1.842-0.015-3.681-0.056-5.521-0.094c-1.84-0.036-3.68-0.105-5.521-0.155l-5.515-0.21   c-1.84-0.093-3.678-0.168-5.516-0.276l-0.029-0.001l-0.005-0.003c-0.284-0.043-0.514-0.113-0.761-0.189   c-0.237-0.093-0.48-0.165-0.703-0.291c-0.23-0.11-0.453-0.232-0.66-0.387c-0.104-0.075-0.214-0.14-0.312-0.223l-0.28-0.265   c-0.198-0.167-0.347-0.38-0.495-0.591c-0.074-0.11-0.149-0.194-0.222-0.327l-0.158-0.317l-0.629-1.269   c-0.107-0.21-0.191-0.436-0.287-0.654l-0.277-0.658l-0.548-1.313C37.376,50.274,37.027,49.395,36.711,48.504z"/><path d="M14.154,56.502c0,4.002,3.246,7.248,7.249,7.248s7.251-3.246,7.251-7.248c0-4.005-3.248-7.252-7.251-7.252   S14.154,52.497,14.154,56.502z M20.865,55.203l-2.359-2.361c0.664-0.527,1.473-0.877,2.359-0.979V55.203z M21.941,51.863   c0.887,0.102,1.696,0.451,2.361,0.979l-2.361,2.361V51.863z M25.063,53.602c0.527,0.664,0.877,1.474,0.979,2.36h-3.34   L25.063,53.602z M26.041,57.037c-0.102,0.889-0.451,1.699-0.979,2.362l-2.361-2.362H26.041z M24.303,60.16   c-0.664,0.526-1.475,0.876-2.361,0.978v-3.34L24.303,60.16z M20.865,61.138c-0.887-0.102-1.695-0.451-2.359-0.978l2.359-2.362   V61.138z M17.744,59.399c-0.527-0.663-0.877-1.474-0.979-2.362h3.34L17.744,59.399z M16.766,55.962   c0.103-0.887,0.451-1.696,0.98-2.36l2.359,2.36H16.766z"/></g></svg>