<?xml version="1.0" encoding="UTF-8"?>
<svg xmlns="http://www.w3.org/2000/svg" version="1.1" viewBox="131 338 338 64" width="800" height="151" preserveAspectRatio="xMidYMid meet">
  <polygon fill-rule="evenodd" clip-rule="evenodd" points="429.3,393.2 429.3,366.8 427.6,366.8 413.4,393.2 392,393.2 377.8,366.8 376.5,366.8 376.5,393.2   344.5,393.2 344.5,346 394.6,346 403.4,360.7 412.8,346 460.9,346 460.9,393.2 "/>
  <path fill-rule="evenodd" clip-rule="evenodd" d="M210.2,377c0,0,13.5-2.8,13.5-13.5c0-17.4-21.2-17.4-21.2-17.4h-63.2v47.6h34.5V378h5.3l11.8,15.4h36.7  L210.2,377z M181.6,366.9h-8.1v-11.1h8.9c3.3,0.2,5.9,3,5.9,6.3c0,4.7-6.6,4.8-6.6,4.8H181.6z"/>
  <path fill-rule="evenodd" clip-rule="evenodd" d="M311.2,346.1h-51.7l-24.8,47.2h34.9l4.8-11.4h21.3l4.6,11.3h35.4L311.2,346.1z M277.7,371.1l7.5-14.7l7.4,14.7  L277.7,371.1z"/>
</svg>
